<?xml version="1.0" encoding="UTF-8" standalone="no"?>
<svg
   version="1.1"
   width="141.73235"
   height="141.73589"
   id="svg18"
   viewBox="0 0 141.73234 141.73589"
   sodipodi:docname="660e566b5e66d348aeb2299b35cfe2e1.cdr"
   xmlns:inkscape="http://www.inkscape.org/namespaces/inkscape"
   xmlns:sodipodi="http://sodipodi.sourceforge.net/DTD/sodipodi-0.dtd"
   xmlns="http://www.w3.org/2000/svg"
   xmlns:svg="http://www.w3.org/2000/svg">
  <defs
     id="defs22" />
  <sodipodi:namedview
     id="namedview20"
     pagecolor="#ffffff"
     bordercolor="#666666"
     borderopacity="1.0"
     inkscape:pageshadow="2"
     inkscape:pageopacity="0.0"
     inkscape:pagecheckerboard="0" />
  <g
     id="Layer1000"
     transform="translate(-226.77177,-350.07712)">
    <path
       d="m 290.5191,352.3224 c -3.3684,0 -5.5028,-2.1875 -8.7468,-0.0352 -0.1967,0.1298 -0.2985,0.1982 -0.485,0.3223 -1.2767,0.8504 -2.2924,1.9647 -3.8401,2.3539 -1.8235,0.4615 -3.6536,-0.0468 -4.8855,0.0539 -1.4729,0.1204 -2.727,0.5402 -3.7948,1.591 -0.1539,0.152 -0.2602,0.2518 -0.4059,0.4048 -0.1953,0.2067 -0.2027,0.2912 -0.3977,0.4967 -0.8728,0.919 -1.6398,1.9746 -2.823,2.5659 -1.6688,0.8356 -3.9512,0.7622 -5.7376,1.3555 -0.6622,0.2183 -1.1398,0.5684 -1.6569,0.9482 -0.4986,0.3648 -0.8515,0.9652 -1.2021,1.4907 -0.252,0.3776 -0.4814,0.7283 -0.6815,1.1121 -0.1179,0.2245 -0.1568,0.2806 -0.3073,0.5031 -0.1465,0.2197 -0.2012,0.3493 -0.3384,0.5596 -1.4735,2.2691 -3.0288,2.4732 -5.4482,3.4381 -0.2237,0.0907 -0.3702,0.1698 -0.629,0.2713 -2.6173,1.0276 -2.9398,3.507 -3.9101,5.8771 -1.5248,3.7315 -5.9295,3.5484 -7.1073,7.0772 -0.8799,2.6391 -0.209,4.303 -2.0489,6.7493 -0.6089,0.8062 -1.5713,1.4944 -2.3216,2.1685 -1.3731,1.2305 -1.8122,2.2887 -2.0358,4.1607 -0.1279,1.0922 0.3804,3.1266 -0.027,4.9108 -0.0975,0.4337 -0.3075,0.9124 -0.5204,1.2753 l -0.7158,1.0791 c -2.1761,3.1059 -3.139,3.8707 -1.9193,7.9345 0.8889,2.9557 0.3685,4.352 -0.9255,6.9108 -2.501,4.9488 1.4077,6.5931 1.4077,10.2045 0,2.1455 -0.9873,3.7071 -0.9873,6.1954 0,2.4803 3.2258,4.6142 3.7219,7.2334 0.1955,1.0321 0.0439,1.8936 0.0487,2.9121 0.004,0.6454 -0.1222,0.9433 -0.0938,1.5301 0.0643,1.3388 0.4337,2.4007 1.2452,3.424 l 1.2036,1.2217 c 0.1962,0.1854 0.2571,0.1806 0.453,0.3555 0.2906,0.2625 0.5134,0.5632 0.8076,0.8076 0.2288,0.1893 0.1857,0.0683 0.3898,0.3271 1.1165,1.415 1.3841,1.8672 1.7178,3.8506 0.479,2.8553 0.4008,4.206 2.808,5.9003 l 1.432,0.9022 c 2.0328,1.2073 2.8761,1.8516 3.7633,4.2288 0.5522,1.4862 0.9751,3.0622 2.0968,4.1873 0.9652,0.9678 2.91,1.463 4.3412,2.0341 1.2915,0.5157 1.9049,0.929 2.7525,1.9163 1.9307,2.2478 1.7549,4.7109 5.5817,5.5528 1.9182,0.4198 3.954,0.3846 5.531,1.5613 0.5686,0.4221 0.7613,0.7228 1.233,1.1894 0.9142,0.9042 1.6753,2.0089 2.8026,2.6759 1.7853,1.0556 4.0275,0.6231 6.3786,0.6231 1.9706,0 3.4208,1.2325 4.6034,2.2218 1.0264,0.8563 2.3559,1.6395 3.7463,1.6395 3.0569,0 4.6908,-1.8683 8.0546,-0.5108 2.7805,1.122 4.5403,2.626 7.6578,1.0517 1.0744,-0.5429 2.9659,-1.5282 4.2208,-1.5282 1.8573,0 3.0019,0.4578 4.6749,0.8016 1.9256,0.3946 3.1884,-0.034 4.661,-1.0712 0.8643,-0.6074 1.6943,-1.3036 2.6337,-1.8564 0.3682,-0.2148 0.6026,-0.3467 1.0352,-0.4904 1.1418,-0.3846 2.6904,-0.3024 3.793,-0.1746 0.8555,0.1006 1.8477,0.0244 2.5733,-0.1026 1.0165,-0.1777 1.8309,-0.7401 2.5594,-1.3927 l 1.5265,-1.7059 c 0.5128,-0.6114 1.1183,-1.1826 1.787,-1.6231 1.1721,-0.7716 2.5772,-0.8742 4.2423,-1.1474 1.2949,-0.2121 2.8505,-0.5157 3.7499,-1.5449 l 2.6592,-3.9855 c 0.3407,-0.5165 0.8155,-1.0194 1.3476,-1.3485 0.1426,-0.091 0.25,-0.1417 0.3946,-0.2324 0.1777,-0.1123 0.2404,-0.1593 0.4669,-0.2512 1.2968,-0.5232 2.6192,-0.917 3.8554,-1.5329 0.3135,-0.1565 0.54,-0.26 0.7951,-0.4621 0.1482,-0.119 0.1913,-0.1681 0.3447,-0.2832 0.3855,-0.2911 0.6494,-0.7528 0.8935,-1.1718 0.8407,-1.4454 1.0644,-3.2834 1.9578,-4.6857 0.4329,-0.6806 0.9397,-1.1826 1.5696,-1.6619 0.1582,-0.1222 0.2752,-0.2021 0.4266,-0.2903 0.3067,-0.1794 0.5117,-0.3251 0.8351,-0.5136 0.5975,-0.3464 1.0995,-0.6619 1.658,-1.035 0.1437,-0.0938 0.254,-0.1613 0.3801,-0.2491 0.4207,-0.2968 0.7217,-0.622 1.0508,-1.0157 1.656,-1.9803 0.7441,-5.4805 2.664,-8.0175 0.2089,-0.2764 1.0341,-1.1044 1.2957,-1.3096 0.7424,-0.582 1.4514,-1.2589 2.0548,-1.9843 2.5138,-3.0254 -0.3849,-6.292 2.0733,-9.9592 2.2422,-3.3446 3.452,-3.5742 2.3329,-8.0459 -1.1514,-4.6111 -0.2608,-4.3055 1.3292,-8.4041 0.7617,-1.9522 0.1942,-3.6139 -0.6514,-5.2906 -0.4745,-0.942 -1.1974,-2.3165 -1.1974,-3.3817 0,-1.5324 0.2121,-2.1555 0.5188,-3.5215 0.8983,-3.9929 0.4598,-4.1984 -1.9199,-7.4693 -0.5344,-0.7364 -0.9386,-1.3819 -1.2374,-2.2626 -0.8163,-2.4083 0.6407,-5.5264 -0.879,-7.8307 -0.25,-0.3813 -0.4932,-0.6625 -0.8135,-0.9814 -1.1132,-1.1095 -2.7176,-2.2935 -3.4628,-3.6297 -0.8575,-1.5373 -0.7929,-3.9408 -1.3507,-5.7428 -0.7118,-2.2974 -2.8086,-3.0166 -4.5927,-4.2057 -0.1806,-0.1222 -0.3623,-0.2347 -0.54,-0.3594 -0.1437,-0.1024 -0.3651,-0.2603 -0.5156,-0.3839 -2.0634,-1.7396 -1.8633,-5.0873 -3.7236,-6.9579 -1.5616,-1.5704 -4.0958,-1.7288 -5.9239,-2.8749 -0.3339,-0.2089 -0.7384,-0.5182 -0.9921,-0.8042 -1.7306,-1.9366 -2.2578,-4.7795 -4.9708,-5.7157 -1.8173,-0.6276 -4.1366,-0.4842 -5.7518,-1.3389 -2.217,-1.1749 -3.2715,-4.1292 -5.7725,-4.8228 -2.1455,-0.5961 -4.3546,0.1905 -6.4474,-0.2866 -3.7919,-0.8654 -4.0606,-5.0176 -10.1319,-3.1799 -0.4053,0.1222 -0.949,0.2296 -1.3104,0.3061 -1.1291,0.2373 -2.4219,0.2464 -3.4835,-0.1584 -4.0264,-1.533 -4.5468,-2.9775 -9.0652,-0.7195 l -1.5639,0.6823 c -0.4898,0.1908 -1.2192,0.3941 -1.8488,0.3941 z"
       style="fill:#1b1918;fill-rule:evenodd"
       id="path2" />
    <path
       d="m 297.6401,484.9362 c -35.2854,0 -63.9924,-28.7071 -63.9924,-63.9913 0,-35.2846 28.707,-63.9902 63.9924,-63.9902 35.2848,0 63.9907,28.7056 63.9907,63.9902 0,35.2842 -28.7059,63.9913 -63.9907,63.9913 z m 0,-126.8691 c -34.6731,0 -62.8796,28.2069 -62.8796,62.8778 0,34.672 28.2065,62.8789 62.8796,62.8789 34.6714,0 62.8784,-28.2069 62.8784,-62.8789 0,-34.6709 -28.207,-62.8778 -62.8784,-62.8778 z"
       style="fill:#ffffff;fill-rule:evenodd"
       id="path4" />
    <path
       d="m 290.6419,438.3706 c -0.8617,0.4189 -2.2657,-0.3711 -3.4472,0.1709 -0.5241,0.2412 -0.781,0.3818 -1.4709,0.4093 -0.8944,0.036 -0.9448,-0.1777 -1.3881,-0.5264 -1.063,-0.0195 -1.8599,0.1982 -2.4668,-0.5215 -0.0121,-0.3603 0.04,-0.4386 0.2563,-0.6367 0.0505,-0.0459 0.4414,-0.3487 0.4791,-0.3634 1.7129,-0.6474 2.5072,2.378 1.9218,-6.9639 l -0.2332,-7.3114 c 0.005,-0.3438 0.6244,-19.1049 -0.0635,-20.251 -0.0978,-0.0782 -0.007,-0.0431 -0.1809,-0.1088 -0.993,-0.3813 -3.1,0.3129 -3.712,-0.2636 -0.6097,-0.5783 -0.2443,-1.0596 0.4386,-1.2918 1.0887,-0.3727 5.093,-0.0244 6.2158,0.1775 1.1242,0.2009 2.8063,0.4614 2.4851,1.7983 -1.3992,0.5082 -2.6589,-0.4987 -3.2085,-0.0576 -0.1613,0.2163 -0.1052,-0.2018 -0.0953,0.3436 0.0145,0.7526 0.1259,1.4284 0.1111,2.6198 l -0.1567,13.6088 0.479,16.9971 c 0.7359,0.6574 2.3707,0.2489 3.475,0.33 1.569,0.1122 1.4981,1.3838 0.5613,1.8408 z m 38.9166,-22.4087 c 0.002,0.3106 -0.1044,0.496 -0.1044,0.9255 0.0145,5.9003 0.5792,12.575 -1.2744,18.1131 -0.5851,1.756 -1.1994,2.9211 -2.3329,3.9696 -1.177,1.0879 -3.1505,1.5412 -4.7608,0.593 -4.6213,-2.7198 -4.8974,-14.7121 -4.875,-21.3786 0.007,-3.9915 0.3934,-12.5555 1.743,-16.2697 1.2336,-3.3883 2.7618,-1.696 3.2686,-1.4542 1.2314,0.5927 3.6992,0.618 4.6191,1.3867 0.75,0.6293 1.7929,2.5537 2.1994,3.7208 1.1355,3.2669 1.5086,6.5735 1.5174,10.3938 z m -2.0897,0.6491 c -0.0803,-2.1285 -0.1662,-4.2693 -0.3028,-6.3845 -0.0646,-1.0752 -0.1709,-1.1679 -0.2001,-1.4853 -0.1369,-1.3638 0.1806,-2.1337 -0.9298,-4.0298 -1.5304,-2.6098 -3.5889,-2.7408 -6.4403,-2.5316 -0.6936,0.826 -0.7951,5.4604 -0.9465,6.891 -0.7101,6.7043 -1.4179,22.5927 2.1447,28.0041 1.4239,2.162 3.5654,1.4686 4.7704,-0.5128 0.8204,-1.3476 1.501,-4.25 1.7714,-6.1016 0.758,-5.1778 0.3203,-8.8741 0.133,-13.8495 z m -61.5314,16.666 c 0.2319,-4.17 0.4408,-8.2199 0.3515,-12.4078 -0.0904,-4.2715 0.1516,-8.602 0.2225,-12.8696 0.0173,-1.0752 0.2639,-5.6061 -0.0476,-6.294 -0.1919,-0.4238 -0.2466,-0.8136 -0.0403,-1.338 0.4816,-1.2288 2.3278,-0.6145 3.6301,-0.2015 3.344,1.0604 2.3788,1.0482 2.9236,1.972 1.211,2.0625 1.4786,3.9221 1.552,6.5098 0.2347,8.6689 -2.1651,9.0601 -2.5123,10.463 0.2749,0.3237 0.517,0.4872 0.8067,0.8628 0.7523,0.9771 1.2166,2.1597 1.5321,3.3803 0.4156,1.6036 0.5205,4.1406 0.536,5.9395 0.0335,4.3741 -1.176,7.3652 -3.8168,9.1406 -0.6636,0.4453 -1.3558,0.7687 -2.2578,0.9813 -3.7548,0.883 -3.172,-0.8348 -2.8797,-6.1384 z m 2.1112,-16.3888 c 0,0.4215 0.1284,0.6636 0.2393,1.0327 4.1275,0.1026 4.2485,-4.8266 4.2511,-7.8823 -0.003,-2.5889 -0.2628,-7.0024 -2.0344,-8.115 -1.7779,-1.1175 -2.0308,0.7117 -2.2119,2.1843 -0.1945,1.5713 -0.2441,3.151 -0.2441,4.8175 z m -0.2545,19.5341 c 0.007,0.6622 -0.1718,0.9698 0.5082,0.8986 1.0582,-0.1114 2.0568,-0.7257 2.7238,-1.4326 2.1958,-2.3309 2.3814,-5.3175 1.8976,-9.2208 -0.3703,-3.0048 -1.5016,-6.8196 -4.671,-6.6963 -0.318,1.6821 -0.4181,9.1788 -0.2472,11.0353 0.1114,1.1814 -0.1683,1.453 -0.2162,2.5429 -0.0462,0.9598 -0.006,1.9131 0.005,2.8729 z m 43.3757,-36.9306 c -0.3818,-0.3628 -0.6834,-0.0966 -1.1415,0.0448 -0.3458,0.9094 -0.6406,3.1306 -0.8623,4.2355 -0.292,1.461 -0.5743,2.8469 -0.8663,4.3081 -1.3611,6.8409 -1.9051,10.9806 -2.7518,17.8832 -0.1965,1.6027 -1.086,7.5099 -1.6779,8.6466 -0.1961,-0.3487 -1.1846,-7.831 -1.3563,-8.9453 -1.2382,-8.0371 -2.4738,-13.9887 -4.2375,-21.7817 -0.3269,-1.4415 -0.5165,-2.8554 -1.5013,-3.7642 -0.5969,-0.0113 -0.7684,0.1293 -0.983,0.5678 -0.053,0.737 0.8575,3.6632 1.0879,4.4844 0.4269,1.5064 0.7467,3.0201 1.0865,4.5474 1.9574,8.7939 4.3481,20.546 4.5326,29.3967 l 0.6251,0.534 c 1.7189,0.0938 2.0205,-2.3936 2.2323,-3.9444 0.3926,-2.8672 -0.0908,-1.9015 0.8291,-5.4941 1.1993,-4.6769 1.0862,-6.2989 1.6183,-10.9457 0.6494,-5.694 1.7861,-10.3346 3.0254,-15.7592 0.1562,-0.6979 0.9122,-3.4691 0.3407,-4.0139 z"
       style="fill:#ffffff;fill-rule:evenodd"
       id="path6" />
    <path
       d="m 302.2872,462.407 c -0.923,0 -2.4758,-0.9241 -2.4894,-7.1048 -0.002,-1.8241 0.0967,-3.2655 0.2959,-4.2823 0.2549,-1.3053 0.4091,-2.0917 1.1574,-2.0917 0.1894,0 0.4082,0.0627 0.6863,0.1993 0.1709,0.0819 0.3818,0.1202 0.589,0.1573 l 0.1795,0.0312 c 0.8586,0.167 1.087,0.6435 1.3762,1.2453 0.9745,2.0369 0.8495,8.0702 0.2069,9.9606 -0.3807,1.1262 -1.1866,1.8851 -2.0018,1.8851 z m -0.8311,-12.0958 c -0.4434,1.3213 -0.5352,7.3027 0.01,9.5321 0.1769,0.7226 0.5655,1.3331 0.8467,1.3331 0.1154,0 0.2597,-0.0969 0.4133,-0.2735 0.9099,-1.0508 0.7673,-4.4501 0.7002,-6.0849 l -0.003,-0.0694 c -0.0144,-0.2999 -0.0164,-0.6075 -0.0215,-0.915 -0.0332,-2.2031 -0.1599,-3.5371 -1.6512,-3.5371 -0.0927,0 -0.1913,0.003 -0.2939,0.0147 z m 9.4716,12.0671 c -0.5703,0 -0.6553,-0.7109 -0.6857,-0.9793 -0.1638,-1.3907 -0.1218,-2.831 -0.0827,-4.2285 l 0.0204,-0.7432 c 0.005,-0.1885 -0.0187,-0.4062 -0.0391,-0.5976 -0.0233,-0.2109 -0.0411,-0.3937 -0.0312,-0.5411 0.0116,-0.1406 0.0391,-0.2772 0.0655,-0.4269 0.0371,-0.1854 0.0731,-0.3759 0.083,-0.6131 0.0136,-0.3467 -0.007,-0.8935 -0.0283,-1.4698 -0.0587,-1.58 -0.0802,-2.7383 0.1394,-3.2822 0.044,-0.1095 0.1466,-0.1874 0.2668,-0.2021 0.1913,-0.0264 0.375,-0.0392 0.5508,-0.0392 0.7988,0 1.4346,0.2501 1.8856,0.7461 0.5312,0.5842 0.5303,1.6603 0.5255,2.5285 -0.01,2.4775 -0.4229,2.8242 -2.1379,3.5978 -0.0144,1.8181 0.0216,3.3701 0.1106,4.7372 0.005,0.0476 0.0105,0.1055 0.0175,0.1678 0.0448,0.4286 0.1035,1.0137 -0.3174,1.2473 -0.1151,0.0663 -0.2305,0.0983 -0.3428,0.0983 z m 0.5517,-11.8944 c -0.0604,0.5187 -0.0196,3.3868 0.0147,4.3574 0.1446,-0.0439 0.3419,-0.1777 0.5244,-0.5596 0.5361,-1.1474 0.3388,-3.2431 0.0771,-3.5586 -0.0635,-0.0731 -0.3631,-0.246 -0.5615,-0.246 -0.0252,0 -0.0428,0.002 -0.0547,0.007 z m -28.7263,11.7433 c -0.5888,0 -1.0177,-0.3653 -1.0199,-0.8702 -0.003,-0.1386 0.0893,-0.2676 0.2211,-0.3135 0.1136,-0.0391 0.2284,-0.0607 0.3568,-0.0607 0.1392,0 0.2654,0.0236 0.3802,0.0451 0.0861,0.0176 0.1709,0.034 0.244,0.034 0.0805,0 0.2503,0 0.5205,-0.4453 0.2324,-0.3855 0.3951,-1.0517 0.4447,-1.8309 0.0893,-1.421 -0.4507,-2.3975 -1.0224,-3.4345 l -0.0672,-0.1201 c -0.5913,-1.0744 -1.2609,-2.291 -1.1109,-3.9357 0.1454,-1.5956 1.0474,-2.4287 1.8638,-2.4287 0.5238,0 0.911,0.3711 0.9402,0.9026 0.009,0.1678 -0.1071,0.3152 -0.271,0.3475 -0.2372,0.0439 -0.4291,0.0487 -0.5839,0.0487 h -0.1616 c -0.2211,0 -0.288,0 -0.506,0.6642 -0.2245,0.6934 -0.1805,1.1806 -0.01,1.8896 0.1933,0.8183 0.5377,1.4014 0.9034,2.0205 0.2041,0.3419 0.4124,0.6953 0.6083,1.1075 0.5995,1.247 0.754,2.9795 0.3838,4.3104 -0.4243,1.5276 -1.4028,2.0695 -2.1143,2.0695 z m 11.3731,-0.1193 c -0.8135,-0.1063 -1.0151,-0.2157 -0.9873,-0.9629 0.006,-0.1191 0.0114,-0.2645 0.007,-0.4453 -10e-4,-0.2186 -0.005,-0.5556 -0.005,-0.9531 0,-1.0068 0,-2.9823 -0.089,-3.6309 l -1.4139,-0.0994 c -0.1123,0.6239 -0.0247,1.7537 0.0549,2.7654 0.1236,1.5333 0.1846,2.4954 -0.0867,2.9376 -0.0317,0.0507 -0.0782,0.0947 -0.1329,0.123 -0.1324,0.0663 -0.2569,0.1006 -0.3756,0.1006 -0.1619,0 -0.3099,-0.0635 -0.4247,-0.1786 -0.2749,-0.2803 -0.2919,-0.7939 -0.2871,-1.3419 l -0.0542,-10.1367 c -0.002,-0.0606 -0.007,-0.125 -0.01,-0.1873 -0.0178,-0.2951 -0.034,-0.5704 0.1667,-0.7824 0.182,-0.1933 0.4433,-0.2149 0.6239,-0.2149 0.121,0 0.2398,0.0655 0.2985,0.171 0.3813,0.6766 0.3112,2.0029 0.2381,3.4052 -0.0428,0.7793 -0.083,1.582 -0.0283,2.1444 0.2375,0.0539 0.5513,0.0987 0.8384,0.0987 0.3226,0 0.4717,-0.0556 0.527,-0.0868 0.023,-0.0127 0.0439,-0.0263 0.061,-0.0362 0.006,-0.0185 0.0147,-0.042 0.0243,-0.0703 0.023,-0.0908 0.0596,-0.5293 -0.1031,-2.6728 l -0.01,-0.1318 c -0.0351,-0.54 -0.0643,-1.1027 -0.0927,-1.6164 l -0.007,-0.1641 c -0.0269,-0.3875 -0.0547,-0.788 0.1786,-1.0369 0.0783,-0.0831 0.2166,-0.1825 0.4371,-0.1825 0.1225,0 0.2546,0.032 0.4082,0.0946 0.0723,0.0312 0.1318,0.0851 0.1676,0.1562 0.2724,0.5372 0.4725,11.9276 0.4507,12.6162 -0.003,0.0927 -0.0465,0.1805 -0.1171,0.2412 -0.0612,0.0527 -0.1369,0.0802 -0.2152,0.0802 -0.0136,0 -0.0266,-0.002 -0.0428,-0.003 z"
       style="fill:#ffffff;fill-rule:evenodd"
       id="path8" />
    <g
       id="Layer1001">
      <path
         d="m 287.5725,383.544 c -0.1275,0 -0.2602,-0.0156 -0.3741,-0.0303 l -0.061,-0.007 c -0.0697,-0.007 -0.127,-0.0536 -0.1502,-0.121 -0.1318,-0.3507 -0.0919,-3.9391 -0.0196,-4.3107 0.01,-0.0683 0.061,-0.1219 0.1284,-0.1414 0.0927,-0.0272 0.2089,-0.0428 0.3212,-0.0428 0.3385,0 0.5939,0.1159 0.7036,0.3234 0.0235,0.0431 0.0269,0.0978 0.0147,0.1431 -0.0156,0.0499 -0.0522,0.0879 -0.0961,0.11 -0.1018,0.0462 -0.1896,0.0683 -0.2775,0.0683 -0.0649,0 -0.1185,-0.008 -0.1746,-0.0221 -0.0196,-0.005 -0.0406,-0.007 -0.0627,-0.013 l 0.007,1.0446 0.3455,0.0657 c 0.093,0.021 0.1545,0.1049 0.1483,0.1982 -0.009,0.1182 -0.0357,0.3954 -0.2937,0.3954 -0.0487,0 -0.0935,-0.013 -0.1474,-0.0227 -0.021,-0.005 -0.0405,-0.0113 -0.0626,-0.0139 -0.0488,0.6565 -0.055,1.4015 0.0391,1.738 l 0.2693,0.0473 c 0.0315,0.006 0.051,0.0147 0.0717,0.0218 0.0267,0.009 0.0476,0.0187 0.0658,0.0269 0.0674,0.0122 0.1102,0.0576 0.1323,0.0797 0.044,0.0292 0.0684,0.0748 0.0732,0.1295 0.005,0.0528 -0.0159,0.1024 -0.0527,0.1429 -0.1205,0.127 -0.2991,0.1905 -0.5483,0.1905 z m -3.7695,0.0391 c -0.3141,0 -0.6953,-0.216 -0.8433,-0.6999 -0.1783,-0.5771 -0.1684,-2.6634 0.0649,-3.3258 0.1211,-0.3518 0.4499,-0.7087 0.8419,-0.7087 0.1233,0 0.2472,0.0351 0.3643,0.1049 0.0425,0.0261 0.0742,0.066 0.0853,0.1122 0.0122,0.0491 0.003,0.0992 -0.0196,0.1409 -0.1391,0.2307 -0.3325,0.2359 -0.4422,0.2381 -0.11,0.001 -0.1879,0.003 -0.2823,0.4164 -0.1026,0.4561 -0.1732,2.2669 -0.0771,2.6711 0.0845,0.3509 0.142,0.3594 0.3277,0.3813 0.1162,0.0161 0.2554,0.0343 0.4252,0.1122 0.0451,0.0221 0.0791,0.0615 0.0961,0.1114 0.0161,0.0479 0.0113,0.1001 -0.0131,0.1454 -0.104,0.1883 -0.3007,0.3005 -0.5278,0.3005 z m 39.1833,0.0967 c -0.1102,0 -0.2236,-0.0391 -0.3407,-0.1123 -0.0459,-0.0317 -0.0734,-0.0796 -0.0762,-0.1335 -0.004,-0.0521 0.0195,-0.1023 0.0595,-0.138 0.0292,-0.023 0.0635,-0.0426 0.0859,-0.0513 l 0.2891,-0.1027 c 0.2364,-0.2236 0.1766,-1.5369 -0.0907,-2.2113 l -0.4425,-0.0187 c -0.0811,-0.002 -0.1454,-0.0609 -0.1593,-0.1389 -0.0264,-0.1675 -0.1375,-1.6812 -0.0819,-1.8671 0.0184,-0.0647 0.0731,-0.1112 0.1394,-0.1174 l 0.0703,-0.0122 c 0.0998,-0.0108 0.1849,-0.0221 0.2679,-0.0221 0.1375,0 0.2529,0.0309 0.3739,0.0944 0.042,0.0218 0.0723,0.0609 0.0811,0.1063 0.0116,0.0476 0.002,0.0952 -0.0235,0.1329 -0.0655,0.1015 -0.1523,0.1959 -0.3172,0.1959 -0.0256,0 -0.0559,-0.002 -0.0919,-0.005 l 0.1211,1.1299 c 0.0626,0.0283 0.1094,0.0383 0.1561,0.0505 0.0743,0.0161 0.1554,0.0317 0.254,0.104 0.2928,0.2075 0.3819,0.928 0.4071,1.4955 10e-4,0.0448 0.0411,1.073 -0.3396,1.4673 -0.0958,0.1 -0.214,0.1539 -0.3419,0.1539 z m -7.827,-0.0709 c -0.5499,0 -0.6984,-1.0117 -0.7736,-1.9976 l -0.0139,-0.1502 c -0.1374,-1.7056 -0.034,-2.4562 0.3595,-2.5977 0.0734,-0.026 0.1465,-0.0382 0.2188,-0.0382 0.6953,0 0.798,1.188 0.8615,1.9 l 0.0184,0.1968 c 0.1437,1.3943 0.0459,2.2226 -0.3016,2.5268 -0.1262,0.1048 -0.2472,0.1601 -0.3691,0.1601 z m -0.2432,-4.2568 c -0.1545,0.3198 -0.0947,0.9287 -0.0431,1.4247 0.0204,0.2075 0.04,0.4054 0.0439,0.5769 0.006,0.0791 0.007,0.1683 0.009,0.2625 0.005,0.4776 0.0185,1.2574 0.296,1.4317 0.0499,-0.0499 0.0595,-0.0952 0.0986,-0.2687 0.167,-0.8002 0.04,-1.603 -0.0819,-2.3828 -0.0267,-0.178 -0.0547,-0.3538 -0.0791,-0.5238 -0.0479,-0.3666 -0.0706,-0.4791 -0.2432,-0.5205 z m -3.8174,4.3033 c -0.1525,0 -0.3351,-0.0173 -0.4717,-0.0465 -0.0782,-0.0144 -0.129,-0.0771 -0.1358,-0.1528 -0.0108,-0.1505 0.1151,-0.4864 0.4034,-1.2169 0.1366,-0.3455 0.2772,-0.7035 0.3291,-0.8855 0.2979,-1.0925 0.3124,-1.8675 0.0496,-2.0699 l -9e-4,0.003 c -0.0167,0.0357 -0.0411,0.0927 -0.0878,0.1908 l -0.0615,0.1207 c -0.0264,0.0502 -0.0822,0.0831 -0.1378,0.0882 -0.005,0 -0.0196,0 -0.0272,0 -0.1242,-0.005 -0.1857,-0.0686 -0.2112,-0.1089 -0.0751,-0.104 -0.0663,-0.2528 0.0167,-0.479 0.0468,-0.1145 0.0998,-0.1624 0.1542,-0.2152 0.0119,-0.0133 0.0304,-0.0269 0.0491,-0.0473 0.026,-0.0244 0.0623,-0.0431 0.0986,-0.0479 0.042,-0.006 0.0819,-0.007 0.1219,-0.007 0.2169,0 0.3935,0.0797 0.5236,0.2311 0.3515,0.4277 0.2372,1.3419 0.0975,2.0868 -0.1659,0.8776 -0.3682,1.2807 -0.5341,1.607 -0.0674,0.1383 -0.127,0.2554 -0.172,0.3897 0.085,-0.0113 0.1672,-0.0147 0.2276,-0.0147 0.0127,0 0.0323,0.003 0.0499,0.003 l 0.2061,0.0501 h 0.003 c 0.083,0 0.1318,0.0547 0.1514,0.0768 0.036,0.0267 0.0558,0.065 0.0646,0.1112 0.004,0.0453 -0.0159,0.0895 -0.0431,0.127 -0.1151,0.1343 -0.3379,0.2066 -0.663,0.2066 z m -40.5941,-0.0774 c -0.1185,0 -0.2398,-0.034 -0.3583,-0.1049 -0.0513,-0.0326 -0.0856,-0.0904 -0.0879,-0.1462 -0.003,-0.0601 0.0232,-0.1214 0.0723,-0.1588 0.1162,-0.0895 0.2219,-0.1162 0.3016,-0.1372 0.093,-0.0269 0.1295,-0.0329 0.1944,-0.1392 0.3334,-0.5451 0.044,-1.2208 -0.2446,-1.7512 -0.5947,-1.103 -0.2931,-1.7762 -0.1871,-1.9559 0.1276,-0.2115 0.3047,-0.33 0.4901,-0.33 0.1783,0 0.3314,0.1089 0.4159,0.3056 0.0399,0.0904 0,0.1976 -0.0944,0.2384 -0.1307,0.0598 -0.2285,0.072 -0.2982,0.0794 -0.0156,0 -0.0403,10e-4 -0.0491,0.006 0.005,0.002 -0.0156,0.0292 -0.0487,0.1384 -0.1466,0.464 0.0453,0.805 0.2823,1.2401 0.2772,0.4995 0.5913,1.0664 0.3847,1.9267 -0.0913,0.3813 -0.3711,0.7889 -0.7719,0.7889 -10e-4,0 -10e-4,0 -10e-4,0 z m 9.271,-0.0813 c -0.0219,0 -0.0426,-0.005 -0.061,-0.0122 l -0.0805,-0.0261 c -0.1905,-0.061 -0.231,-0.1267 -0.2642,-0.322 -0.006,-0.0457 -0.0181,-0.1032 -0.0343,-0.1812 -0.0975,-0.4362 -0.5961,-1.8635 -0.9037,-2.6206 -0.005,0.2259 0.01,0.4862 0.0253,0.7146 0.01,0.1868 0.0195,0.364 0.0195,0.506 -0.005,0.3271 0.0148,0.6338 0.0318,0.9298 0.0416,0.7013 0.0161,0.8061 -0.0658,0.8943 -0.0499,0.0547 -0.1086,0.0695 -0.1505,0.0734 -0.0269,0.0156 -0.0547,0.023 -0.0865,0.023 -0.006,0 -0.01,0 -0.0144,0 -0.0527,-0.005 -0.1026,-0.0329 -0.135,-0.0757 -0.1987,-0.2724 -0.1953,-0.942 -0.1717,-1.7949 0.005,-0.1757 0.007,-0.3297 0.006,-0.4399 l -0.003,-0.2384 c -0.0144,-0.6095 -0.034,-1.4429 0.1378,-1.874 0.0295,-0.0709 0.0958,-0.1137 0.1715,-0.1137 0.0145,0 0.0278,10e-4 0.0448,0.006 0.2789,0.0683 0.341,0.1082 0.4011,0.3566 0.009,0.0428 0.021,0.0966 0.0428,0.1686 l 0.5289,1.3405 c 0.0794,0.1846 0.1746,0.4921 0.2773,0.8209 0.0479,0.1599 0.104,0.3396 0.1593,0.5023 0.0326,-0.3852 0.0204,-0.8861 0.01,-1.3524 -0.021,-0.7444 -0.038,-1.385 0.1049,-1.7073 0.0317,-0.0697 0.0986,-0.1111 0.1686,-0.1111 0.0219,0 0.0414,0.007 0.065,0.0145 0.3798,0.1442 0.3237,0.5964 0.2823,0.9263 -0.009,0.0845 -0.0213,0.1684 -0.0247,0.2466 l -0.0955,2.2275 c -0.006,0.087 -0.007,0.1602 -0.01,0.2336 -0.0108,0.3277 -0.0204,0.6131 -0.2466,0.8342 -0.0366,0.0318 -0.0805,0.0505 -0.1284,0.0505 z m 39.3993,0.0669 c -0.1729,0 -0.3371,-0.0222 -0.4454,-0.04 -0.049,-0.009 -0.0909,-0.0357 -0.1162,-0.0748 -0.0275,-0.044 -0.0323,-0.0939 -0.0176,-0.1392 0.0664,-0.2067 0.171,-0.2577 0.2744,-0.2739 9e-4,-0.007 0.003,-0.0155 0.003,-0.0277 l -0.0987,-2.2669 c -0.032,-0.4226 -0.0479,-0.7245 -0.0586,-0.9343 -0.01,-0.1619 -0.0176,-0.2993 -0.0253,-0.3702 -0.0898,-0.0128 -0.2041,-0.038 -0.3634,-0.1298 -0.0547,-0.0352 -0.0859,-0.0978 -0.0771,-0.1588 0.0244,-0.2741 0.4913,-0.2775 0.5108,-0.2775 0.0527,0 0.0995,0.006 0.1398,0.0148 0.3115,0.0822 0.3027,0.297 0.2976,0.4532 -0.002,0.0488 -0.005,0.1041 -8e-4,0.1698 0.009,0.1809 0.0243,0.3654 0.0391,0.5514 0.0164,0.2162 0.0351,0.4433 0.0439,0.6703 0.0145,0.3229 0.0312,0.6441 0.0457,0.9652 0.0266,0.4292 0.0501,0.8589 0.0617,1.298 0.0352,0.008 0.0576,0.008 0.0644,0.008 0,0 0.0683,-0.003 0.0723,-0.003 0.1709,0 0.2333,0.1466 0.2755,0.2418 0.032,0.0805 0.002,0.1724 -0.0762,0.2138 -0.135,0.0723 -0.3215,0.11 -0.5488,0.11 z m -44.5394,-0.0669 c -0.1724,0 -0.3433,-0.0358 -0.4952,-0.0993 -0.0887,-0.0374 -0.1318,-0.1414 -0.0975,-0.2332 0.0623,-0.1735 0.1454,-0.2367 0.2259,-0.2736 0.007,-0.0462 0.0162,-0.1601 0.006,-0.4388 -0.021,-0.4263 -0.0161,-0.9541 -0.0113,-1.4641 0.007,-0.5825 0.0122,-1.1347 -0.017,-1.4802 -0.1066,0 -0.1783,-0.0295 -0.3345,-0.1276 -0.0502,-0.0303 -0.0819,-0.089 -0.0845,-0.1522 0,-0.0318 0.005,-0.0641 0.023,-0.0919 0,-0.007 0.002,-0.0147 0.002,-0.0243 0.0349,-0.1262 0.1129,-0.1358 0.3277,-0.1653 l 0.0601,-0.006 c 0.007,-10e-4 0.0255,-10e-4 0.0352,-10e-4 0.0439,0 0.2299,0.004 0.2432,0.006 0.1893,0.0121 0.3203,0.0351 0.5026,0.1082 0.0839,0.0383 0.1301,0.131 0.1057,0.218 -0.0448,0.1636 -0.1792,0.2636 -0.2872,0.3076 l 0.0431,3.2587 c 0.0278,0.005 0.0553,0.0122 0.0845,0.0235 0.0377,0.007 0.0547,0.0156 0.0669,0.0182 l 0.1001,0.0462 c 0.0714,0.007 0.1162,0.0487 0.1431,0.0722 0.0454,0.0304 0.0771,0.0857 0.0797,0.1466 0.002,0.0584 -0.0244,0.1171 -0.0749,0.1514 -0.1658,0.1284 -0.3982,0.2007 -0.6474,0.2007 z"
         style="fill:#ffffff;fill-rule:evenodd"
         id="path10" />
      <path
         d="m 295.7136,389.9665 c 1.5393,0 3.0773,0 4.6154,0 1.2784,0 2.5373,-0.004 2.8896,-1.4483 0.2501,-1.0216 -0.0311,-2.3312 -0.0215,-2.6915 0.3838,0 0.7659,-0.0501 1.131,-0.1649 1.6671,-0.5244 2.1005,-2.0024 2.0773,-3.5924 -0.0216,-1.455 0.3631,-3.4787 -0.4525,-4.7701 -0.3211,-0.5105 -0.7996,-0.8978 -1.364,-1.1106 -0.4161,-0.1588 -1.3759,-0.0148 -1.3771,-0.4655 -0.006,-0.8345 -0.115,-1.5077 -0.1201,-2.3423 -0.004,-0.4203 1.0207,-0.4546 0.9561,-1.3759 -0.0703,-1.002 -0.6358,-0.8441 -1.0332,-1.2949 -0.2197,-0.2505 -0.2333,-0.8444 -0.4678,-1.1914 -1.203,-1.779 -2.2529,-0.0756 -3.3358,-0.5587 -0.4844,-0.2174 -0.9805,-0.3444 -1.506,-0.1757 -0.6038,0.1942 -0.8017,0.5987 -1.4344,0.4459 -0.4787,-0.116 -0.9592,-0.089 -1.3515,0.2395 -0.2563,0.214 -0.3739,0.6075 -0.6511,0.7792 -0.3589,0.2262 -0.9406,0.2328 -0.9202,0.7093 0.0406,0.9947 -0.6806,0.822 -0.6976,1.489 -0.0207,0.7849 0.4156,0.5913 0.4462,0.9567 0.0391,0.4487 0.0295,0.9017 0.0343,1.349 0.034,3.21 -0.1811,3.6695 -0.1944,6.878 -0.005,1.2645 0.1797,5.2818 0.1757,6.5477 -0.005,1.7961 1.0108,1.7879 2.6016,1.7879 0,0 -1.3493,0 0,0 z m 9.2328,-11.818 c 0.5428,0.9091 0.2605,2.918 0.2412,3.9501 -0.0227,1.2597 -0.6993,1.7487 -1.9962,1.8388 0.2257,-2.9091 0.0664,-3.9548 -0.003,-6.4241 0.6942,0.04 1.4482,0.1137 1.7578,0.6352 z m -2.6788,7.5708 c 0,0.3385 0.04,1.207 -0.5479,0.8564 -0.1894,-0.1151 -0.1406,-0.8408 -0.1494,-1.0166 -0.0567,-1.2449 -0.0343,-2.4976 -0.0156,-3.7437 0.0244,-1.6866 0.0128,-3.3749 0.0128,-5.0624 0,-0.2783 -0.131,-0.881 0.282,-0.9331 0.6642,-0.0859 0.4592,1.4853 0.4434,1.8912 -0.0284,0.722 -0.0253,1.4418 -0.0253,2.164 0,1.9477 0,3.8948 0,5.8442 9e-4,0.3898 0,0 0,0 z m -2.2997,0.6973 c -0.673,-0.4606 -0.3099,-3.7754 -0.3099,-4.2993 0.002,-1.1353 0.007,-2.2739 0.01,-3.4092 0.003,-0.5034 -0.2413,-2.0089 0.0703,-2.4327 0.659,-0.8994 0.6366,2.1787 0.6366,2.4171 0,0.7744 0,1.5503 0,2.3275 0,1.0372 0,2.0758 0,3.1145 0,0.4969 0.1582,1.5956 -0.0623,2.137 -0.0315,0.0768 -0.2815,0.1891 -0.3447,0.1451 z m -6.1127,-11.457 c -0.0365,-0.4717 -0.1981,-1.2989 0.2588,-1.3272 0.8896,-0.0522 1.7828,-0.0451 2.672,-0.0522 1.1866,-0.007 2.3731,-0.005 3.5597,0.008 0.5947,0.009 1.3788,-0.1048 1.9579,0.0684 0.2773,0.2471 0.1389,1.453 -0.3455,1.4711 -0.9065,0.0318 -1.8165,0.0309 -2.7238,0.0332 -1.6209,0.009 -3.6613,0.3237 -5.2682,-0.0317 -0.0352,-0.007 -0.106,-0.1163 -0.1109,-0.1698 z m 4.4017,1.5664 c 0.3818,0.1514 0.2234,0.8977 0.2234,1.2693 0,0.9068 0,1.8145 0,2.7199 0,1.6225 0.214,3.4101 0.005,5.0204 -0.0244,0.1967 -0.3566,0.8467 -0.5939,0.3887 -0.2381,-0.457 -0.1522,-1.0837 -0.1327,-1.5702 0.0341,-0.8353 0.0108,-1.6715 9e-4,-2.5083 -0.0108,-1.103 -0.0196,-2.2079 -0.003,-3.3149 0.002,-0.2687 -0.1576,-1.3975 0.0343,-1.8439 0.1108,-0.2588 0.3784,-0.1967 0.4663,-0.161 z m -1.8006,9.8311 c -0.7135,0.2049 -0.5474,-0.6919 -0.5621,-1.1069 -0.0405,-1.0778 -0.034,-2.1529 -0.0292,-3.231 0.006,-0.9884 0.0184,-1.9791 0.0258,-2.9678 0.006,-0.7745 -0.3691,-2.2139 0.1817,-2.8531 0.7733,-0.409 0.5131,2.1591 0.5131,2.4647 0,0.8232 0.0173,1.6495 0.0261,2.473 0.008,1.1239 0.0153,2.2459 -0.007,3.3675 -0.007,0.4028 0.1542,1.5126 -0.1488,1.8536 0,0 0.26,-0.2937 0,0 z m -2.4262,0.003 c -0.2803,-0.8427 -0.0541,-2.2116 -0.0479,-3.0056 0.006,-0.8835 0.0292,-1.7645 0.0292,-2.6478 0,-1.0865 -10e-4,-2.1725 -10e-4,-3.2587 0,-0.2163 0.1738,-2.3947 0.5783,-1.5503 0.3699,0.7744 0.1406,2.1504 0.138,2.9784 -0.002,0.8716 -0.0269,1.7427 -0.0269,2.6138 0,1.0128 0,2.0259 0,3.0385 0,0.4708 0.2066,1.7013 -0.2225,1.9992 -0.089,0.0624 -0.4215,-0.0904 -0.4468,-0.1675 z m -0.7336,-13.919 c 0.1114,-0.4277 0.4587,-0.2375 0.4805,-0.6528 0.0403,-0.6891 0.3492,-0.8319 0.925,-1.0397 0.4481,-0.1624 0.2993,-0.8139 0.894,-0.97 0.8008,-0.2101 0.8943,1.0165 1.5284,0.3568 0.4499,-0.4668 1.103,-0.9643 1.7329,-0.7319 0.625,0.2285 0.6378,1.097 1.2208,0.6305 1.287,-1.0324 2.2802,-0.0122 2.1963,0.9822 -0.0204,0.2639 0.6367,0.3886 0.7226,0.875 0.0986,0.567 -0.421,0.8637 -0.83,0.8649 -0.9833,0.004 -1.9667,0.011 -2.9512,0.0161 -1.2755,0.005 -2.5494,0.008 -3.825,-0.002 -0.5596,-0.005 -1.3045,0.0992 -1.8924,-0.0156 -0.0735,-0.0147 -0.2189,-0.2454 -0.2019,-0.3138 z m 0.7164,14.959 c 0.5434,-0.104 1.2069,-0.0195 1.7348,-0.0243 1.1605,-0.0139 2.321,-0.0162 3.4817,-0.009 0.9083,0.004 1.8176,10e-4 2.7236,0.0402 0.3889,0.0173 0.5607,0.7648 0.4708,1.2073 -0.0224,0.1137 -0.212,0.2846 -0.2588,0.2942 -1.6123,0.3303 -3.6122,0.0309 -5.2333,0.0244 -0.9091,-0.005 -1.8182,-0.003 -2.7258,-0.034 -0.5709,-0.0207 -0.3971,-0.7427 -0.3532,-1.2767 0.005,-0.0647 0.1086,-0.2126 0.1602,-0.2223 z"
         style="fill:#ffffff;fill-rule:evenodd"
         id="path12" />
    </g>
    <path
       d="m 296.8075,469.065 -3.1362,3.0841 c -0.4045,0.4014 -2.924,2.7655 -3.0997,3.2411 l 12.5495,0.005 c -0.1581,-0.3934 -5.9204,-6.1699 -6.3136,-6.33 z"
       style="fill:#ffffff;fill-rule:evenodd"
       id="path15" />
  </g>
</svg>
